<?xml version="1.0" encoding="UTF-8" standalone="no"?>
<!DOCTYPE svg PUBLIC "-//W3C//DTD SVG 1.1//EN" "http://www.w3.org/Graphics/SVG/1.1/DTD/svg11.dtd">
<svg width="100%" height="100%" viewBox="0 0 1500 500" version="1.1" xmlns="http://www.w3.org/2000/svg" xmlns:xlink="http://www.w3.org/1999/xlink" xml:space="preserve" xmlns:serif="http://www.serif.com/" style="fill-rule:evenodd;clip-rule:evenodd;stroke-linejoin:round;stroke-miterlimit:2;">
    <g id="El-Recolector" serif:id="El Recolector" transform="matrix(0.807754,0,0,0.690608,0,-1475.138122)">
        <rect x="0" y="2136" width="1857" height="724" style="fill:white;"/>
        <g transform="matrix(0.824185,0,0,0.824185,60.373263,462.296267)">
            <g transform="matrix(1.055207,0,0,1.2342,-108.627736,2093.658357)">
                <path d="M304.163,414.348C303.647,414.194 303.872,413.104 303.356,412.949C302.115,412.578 300.765,412.979 299.47,412.944C292.886,412.765 278.488,411.708 277.33,412.039C275.618,412.529 277.196,417.015 270.583,415.206C266.054,413.966 266.266,412.177 266.347,362.5C266.384,340.166 263.701,333.943 277.555,334.153C281.423,334.211 277.63,356.25 280.46,357.563C282.823,358.659 430.197,353.65 431.482,353.428C437.563,352.383 425.001,323.693 443.543,321.896C450.427,321.228 529.568,325.353 535.459,325.846C541.063,326.315 542.307,334.143 542.031,335.37C541.518,337.655 524.705,334.097 499.494,335.319C471.091,336.695 459.375,334.066 457.517,343.504C456.802,347.135 452.883,413.987 456.93,419.094C462.532,426.161 465.306,420.633 472.529,419.924C495.122,417.704 502.729,443.874 502.916,444.326C505.762,451.195 516.894,448.368 517.279,447.411C520.589,439.182 519.425,422.71 519.57,402.5C519.786,372.296 510.014,368.458 503.612,348.471C500.442,338.574 510.365,338.542 561.475,341.953C574.47,342.821 575.989,349.377 590.96,376.241C606.281,403.731 603.818,405.033 602.675,436.5C602.556,439.775 608.011,439.055 605.71,454.531C604.645,461.697 598.719,460.274 548.519,463.752C515.618,466.032 515.673,463.392 505.531,463.82C502.201,463.961 503.383,486.179 480.496,486.212C456.962,486.245 456.226,460.96 454.439,459.597C453.29,458.719 349.171,450.304 344.474,449.727C338.655,449.013 342.972,439.081 337.007,427.75C321.825,398.913 299.753,421.551 298.175,439.469C297.652,445.404 295.26,444.119 289.489,442.536C274.942,438.545 279.625,423.681 280.215,422.36C284.4,413 294.702,423.408 304.163,414.348Z" style="fill:rgb(15,82,32);"/>
            </g>
            <g transform="matrix(1.055207,0,0,1.2342,-108.627736,2093.658357)">
                <path d="M204.051,301.506C204.028,289.172 203.896,217.722 256.552,156.544C364.622,30.986 552.136,64.236 619.06,197.73C672.222,303.774 620.339,390.692 616.383,400.397C615.257,403.159 614.302,397.84 614.252,397.561C612.605,388.394 608.038,388.565 611.461,380.484C660.462,264.807 600.199,160.518 524.446,118.594C369.038,32.586 196.83,168.089 220.009,326.568C231.347,404.087 273.92,431.118 254.544,423.361C249.567,421.369 240.079,419.444 238.322,416.621C202.536,359.117 204.101,304.695 204.051,301.506Z" style="fill:rgb(66,140,18);"/>
            </g>
            <g transform="matrix(1.055207,0,0,1.2342,-108.627736,2093.658357)">
                <path d="M364.253,294.171C361.981,291.23 363.3,290.795 362.941,246.494C362.938,246.134 362.885,239.551 360.66,242.61C358.845,245.104 363.273,310.514 357.588,311.721C350.229,313.284 333.525,312.246 335.981,330.402C336.551,334.618 338.762,333.985 338.771,339.498C338.772,340.485 339.354,350.317 337.633,350.778C327.114,353.598 327.085,349.385 327.079,348.521C326.799,308.436 327.893,246.73 326.296,245.801C321.818,243.198 323.804,248.361 323.878,310.501C323.926,349.9 324.211,351.367 321.498,351.482C318.697,351.601 287.744,352.914 286.468,352.714C284.5,352.407 284.698,351.339 284.706,286.501C284.71,249.828 285.071,249.338 283.246,247.837C276.147,242.001 288.79,240.937 289.538,240.874C291.044,240.748 310.221,239.603 328.524,237.711C359.894,234.469 364.654,234.675 371.379,237.79C376.144,239.997 371.205,243.911 371.165,246.479C370.55,286.035 373.284,287.968 367.706,290.902C365.47,292.077 365.733,292.247 364.253,294.171Z" style="fill:rgb(65,139,16);"/>
            </g>
            <g transform="matrix(1.055207,0,0,1.2342,-108.627736,2093.658357)">
                <path d="M211.951,433.461C211.829,432.196 210.731,420.861 210.874,417.619C210.96,415.678 215.564,419.734 215.899,420.029C244.096,444.868 289.053,437.916 309.013,487.687C311.277,493.333 313.934,508.475 313.228,509.334C310.485,512.669 309.01,500.294 269.777,477.027C244.189,461.851 245.222,460.109 243.541,459.997C234.788,459.412 302.986,508.252 307.291,517.545C308.577,520.321 289.197,521.657 278.465,519.685C220.757,509.08 212.959,442.114 211.951,433.461Z" style="fill:rgb(65,139,16);"/>
            </g>
            <g transform="matrix(1.055207,0,0,1.2342,-108.627736,2093.658357)">
                <path d="M529.861,185.5C529.826,196.174 526.968,198.166 535.795,204.068C574.142,229.71 576.89,230.449 574.301,233.325C571.821,236.081 571.047,233.458 501.23,191.94C429.834,149.483 425.606,145.515 422.378,147.272C410.846,153.551 411.208,154.009 281.517,231.528C280.989,231.844 275.373,235.201 274.168,233.799C271.133,230.267 275.198,230.281 320.744,198.871C328.691,193.39 371.596,165.191 418.763,132.888C425.904,127.997 426.884,130.871 443.772,142.102C504.898,182.751 507.782,186.885 507.819,182.558C507.827,181.593 507.717,181.61 507.747,170.499C507.759,165.946 505.955,163.812 510.514,163.745C526.999,163.5 527.048,163.306 528.332,163.925C530.312,164.88 529.85,168.699 529.861,185.5Z" style="fill:rgb(68,140,20);"/>
            </g>
            <g transform="matrix(1.055207,0,0,1.2342,-108.627736,2093.658357)">
                <path d="M325.867,498.411C324.197,492.076 324.16,491.943 324.561,491.555C325.04,491.092 327.289,492.37 327.504,492.492C330.31,494.086 346.17,503.099 364.445,508.696C437.018,530.926 491.164,507.551 504.341,502.156C518.1,496.523 518.203,497.139 532.457,493.207C540.02,491.122 530.821,499.107 524.926,505.878C511.946,520.788 417.413,552.317 334.66,512.165C326.774,508.338 327.715,506.985 325.867,498.411Z" style="fill:rgb(68,141,20);"/>
            </g>
            <g transform="matrix(1.055207,0,0,1.2342,-108.627736,2093.658357)">
                <path d="M371.558,329.351C370.196,316.766 369.156,316.71 364.757,314.293C364.523,314.164 360.103,293.994 378.504,293.803C404.271,293.536 407.22,294.49 409.588,295.257C410.728,295.626 410.608,293.825 424.5,293.826C445.702,293.828 461.056,291.527 461.131,303.517C461.179,311.021 463.814,313.909 456.446,315.134C440.459,317.792 431.824,314.246 428.744,325.562C427.051,331.782 424.929,329.791 418.501,329.781C409.707,329.768 409.708,329.773 404.454,331.344C401.239,332.305 401.553,329.512 395.501,329.439C383.525,329.295 375.997,329.92 371.558,329.351Z" style="fill:rgb(67,140,18);"/>
            </g>
            <g transform="matrix(1.055207,0,0,1.2342,-108.627736,2093.658357)">
                <path d="M612.759,494.656C590.947,528.667 570.712,531.435 542.434,523.781C538.247,522.648 516.899,539.056 531.329,523.341C547.489,505.742 545.858,485.609 593.506,480.556C618.692,477.886 624.72,465.271 622.522,472.502C619.913,481.083 613.662,492.942 612.759,494.656Z" style="fill:rgb(66,140,17);"/>
            </g>
            <g transform="matrix(1.055207,0,0,1.2342,-108.627736,2093.658357)">
                <path d="M518.247,362.61C516.027,357.412 516.017,357.499 513.795,352.374C510.971,345.86 522.002,347.743 529.515,348.08C562.486,349.557 568.614,347.868 573.245,355.649C591.565,386.423 591.443,387.872 589.319,389.167C586.468,390.904 539.785,388.917 535.482,388.734C527.303,388.386 526.072,380.67 518.247,362.61Z" style="fill:rgb(252,253,252);"/>
            </g>
            <g transform="matrix(1.055207,0,0,1.2342,-108.627736,2093.658357)">
                <path d="M484.058,260.431C484.18,259.784 484.199,259.119 484.321,258.472C486.006,249.574 489.966,255.986 492.524,256.325C501.287,257.487 501.232,257.495 509.402,260.783C511.165,261.492 517.833,258.053 515.697,265.563C508.419,291.157 505.411,290.875 506.785,317.512C506.906,319.854 505.223,319.899 504.539,319.937C499.448,320.224 501.583,307.639 500.515,306.488C499.78,305.695 491.13,308.941 490.34,309.238C488.329,309.992 489.311,317.718 487.485,318.47C481.002,321.142 484.875,310.107 482.286,308.993C476.431,306.475 478.612,316.791 475.467,317.307C470.882,318.059 472.935,312.561 473.647,308.523C474.477,303.819 466.655,304.388 465.748,301.417C464.494,297.312 464.554,297.355 462.484,293.507C461.313,291.332 463.352,291.9 477.525,287.557C478.741,287.185 479.1,286.998 484.058,260.431Z" style="fill:rgb(69,141,22);"/>
            </g>
            <g transform="matrix(1.055207,0,0,1.2342,-108.627736,2093.658357)">
                <path d="M466.078,358.49C466.113,357.103 464.327,347.212 471.507,346.987C490.549,346.393 493.778,347.629 495.58,348.319C501.132,350.445 512.759,380.684 512.812,388.502C512.89,400.064 495.114,390.667 494.651,390.3C486.983,384.218 484.67,386.751 470.419,383.85C465.195,382.786 465.284,379.724 466.078,358.49Z" style="fill:rgb(15,81,31);"/>
            </g>
            <g transform="matrix(1.055207,0,0,1.2342,-108.627736,2093.658357)">
                <path d="M368.656,329.636C364.345,333.094 354.482,329.321 354.757,341.431C354.782,342.552 356.493,343.511 356.838,340.645C357.64,333.993 360.467,335.606 382.5,335.532C389.127,335.509 390.62,333.452 393.782,339.232C395.204,341.832 394.331,336.113 398.534,335.833C399.25,335.786 425.436,335.62 426.362,335.891C428.16,336.419 428.798,347.914 424.461,348.114C418.067,348.409 347.411,351.668 344.481,350.538C340.391,348.962 346.979,341.649 340.724,331.385C340.228,330.571 337.37,320.422 346.562,318.867C357.549,317.007 363.216,315.258 366.231,317.815C368.657,319.873 368.656,328.671 368.656,329.636Z" style="fill:rgb(67,141,19);"/>
            </g>
            <g transform="matrix(1.055207,0,0,1.2342,-108.627736,2093.658357)">
                <path d="M336.208,443.537C336.942,450.165 336.991,451.062 343.363,452.82C348.475,454.229 336.732,478.236 317.463,471.606C294.03,463.544 300.813,413.187 324.305,422.99C333.287,426.739 335.882,441.666 336.208,443.537Z" style="fill:rgb(16,82,33);"/>
            </g>
            <g transform="matrix(1.055207,0,0,1.2342,-108.627736,2093.658357)">
                <path d="M438.079,241.598C443.912,263.757 444.75,264 443.449,265.461C441.006,268.205 428.263,263.704 428.261,269.497C428.255,284.49 429.647,290.044 424.479,289.668C419.703,289.32 425.413,266.678 420.494,266.543C418.21,266.48 405.906,267.833 406.912,263.559C413.34,236.253 414.15,235.794 416.506,235.557C417.162,235.491 432.777,235.478 434.479,235.62C436.958,235.826 437.88,240.982 438.079,241.598Z" style="fill:rgb(67,141,19);"/>
            </g>
            <g transform="matrix(1.055207,0,0,1.2342,-108.627736,2093.658357)">
                <path d="M464.109,457.507C465.602,435.677 481.931,438.058 487.012,449.713C496.402,471.257 466.781,487.034 464.109,457.507Z" style="fill:rgb(247,253,248);"/>
            </g>
            <g transform="matrix(1.055207,0,0,1.2342,-108.627736,2093.658357)">
                <path d="M432.94,421.497C432.717,427.645 429.078,424.396 390.488,422.813C386.575,422.653 343.424,420.883 341.605,420.158C339.764,419.425 334.513,414.344 337.453,414.368C353.924,414.498 423.052,418.219 430.492,418.619C433.526,418.782 432.768,420.185 432.94,421.497Z" style="fill:rgb(243,250,245);"/>
            </g>
            <g transform="matrix(1.055207,0,0,1.2342,-108.627736,2093.658357)">
                <path d="M574.192,469.337C572.756,471.442 569.332,479.429 556.503,480.556C541.52,481.871 532.966,468.763 538.457,468.266C541.324,468.007 572.934,465.147 574.354,465.855C576.152,466.75 574.898,467.258 574.192,469.337Z" style="fill:rgb(16,81,33);"/>
            </g>
            <g transform="matrix(1.055207,0,0,1.2342,-108.627736,2093.658357)">
                <path d="M486.027,280.419C487.297,274.439 487.08,274.494 488.34,268.44C489.123,264.68 506.462,270.686 507.105,272.576C507.445,273.574 501.897,291.341 501.727,291.672C501.149,292.797 500.693,292.421 486.437,287.64C484.858,287.11 485.927,280.989 486.027,280.419Z" style="fill:rgb(250,253,248);"/>
            </g>
            <g transform="matrix(1.055207,0,0,1.2342,-108.627736,2093.658357)">
                <path d="M311.087,442.446C311.178,441.978 311.829,438.611 312.994,436.801C323.648,420.254 336.419,457.101 320.509,460.542C309.853,462.847 310.989,444.075 311.087,442.446Z" style="fill:rgb(243,252,245);"/>
            </g>
            <g transform="matrix(1.055207,0,0,1.2342,-108.627736,2093.658357)">
                <path d="M421.224,463.323C405.052,485.171 380.185,456.898 389.499,457.432C392.052,457.579 417.86,459.06 421.368,459.84C423.556,460.327 422.024,461.121 421.224,463.323Z" style="fill:rgb(18,83,34);"/>
            </g>
            <g transform="matrix(1.055207,0,0,1.2342,-108.627736,2093.658357)">
                <path d="M529.901,432.441C529.621,427.103 529.482,427.177 529.648,424.513C529.728,423.237 529.975,419.285 545.578,423.215C551.179,424.626 554.645,436.622 548.523,436.85C536.546,437.296 531.472,438.587 529.901,432.441Z" style="fill:rgb(249,252,250);"/>
            </g>
            <g transform="matrix(1.055207,0,0,1.2342,-108.627736,2093.658357)">
                <path d="M470.065,457.505C471.192,444.143 482.315,445.233 483.587,457.497C484.472,466.023 472.101,474.33 470.065,457.505Z" style="fill:rgb(17,81,34);"/>
            </g>
            <g transform="matrix(1.055207,0,0,1.2342,-108.627736,2093.658357)">
                <path d="M553.647,510.757C571.606,501.034 572.317,502.39 585.419,497.154C585.66,497.058 600.972,493.009 588.426,498.381C547.563,515.878 549.368,520.3 545.528,520.078C539.978,519.758 552.821,511.301 553.647,510.757Z" style="fill:rgb(229,247,216);"/>
            </g>
            <g transform="matrix(1.055207,0,0,1.2342,-108.627736,2093.658357)">
                <path d="M589.111,428.434C589.194,428.089 589.44,423.464 593.597,421.741C597.975,419.925 600.243,419.572 600.286,422.516C600.417,431.399 601.401,434.43 592.517,434.824C586.988,435.07 588.661,432.044 589.111,428.434Z" style="fill:rgb(248,253,249);"/>
            </g>
            <g transform="matrix(1.055207,0,0,1.2342,-108.627736,2093.658357)">
                <path d="M316.296,441.396C322.439,432.853 326.797,445.287 324.868,450.633C322.165,458.122 312.163,455.418 316.296,441.396Z" style="fill:rgb(17,80,32);"/>
            </g>
            <g transform="matrix(1.055207,0,0,1.2342,-108.627736,2093.658357)">
                <path d="M562.279,451.512C562.343,451.179 561.926,449 564.529,448.698C565.73,448.559 575.476,447.853 579.511,447.76C585.236,447.627 584.591,453.136 579.499,453.48C563.887,454.537 563.054,454.27 562.279,451.512Z" style="fill:rgb(241,250,243);"/>
            </g>
            <g transform="matrix(1.055207,0,0,1.2342,-108.627736,2093.658357)">
                <path d="M573.512,427.775C574.285,427.75 582.843,427.473 583.148,428.554C583.759,430.723 579.83,430.987 579.478,431.01C559.501,432.352 559.054,432.145 558.262,430.644C556.327,426.978 567.147,427.881 573.512,427.775Z" style="fill:rgb(227,243,231);"/>
            </g>
            <g transform="matrix(1.055207,0,0,1.2342,-108.627736,2093.658357)">
                <path d="M464.148,402.504C464.713,400.391 464.253,399.706 466.501,399.505C468.33,399.341 473.279,399.336 474.226,399.949C480.543,404.038 466.232,409.861 464.148,402.504Z" style="fill:rgb(19,79,34);"/>
            </g>
            <g transform="matrix(1.055207,0,0,1.2342,-108.627736,2093.658357)">
                <path d="M408.771,319.523C408.329,324.797 409.097,325.703 407.496,325.691C405.2,325.674 406.999,299.276 409.844,303.21C409.925,303.322 410.044,303.358 408.771,319.523Z" style="fill:rgb(192,245,162);"/>
            </g>
            <g transform="matrix(1.055207,0,0,1.2342,-108.627736,2093.658357)">
                <path d="M314.26,299.523C314.35,299.213 315.272,296.032 317.345,296.937C321.08,298.567 316.315,304.471 314.26,299.523Z" style="fill:rgb(243,254,232);"/>
            </g>
            <g transform="matrix(1.055207,0,0,1.2342,-108.627736,2093.658357)">
                <path d="M331.969,299.456C332.065,299.141 333.108,295.723 335.245,296.962C338.349,298.761 334.516,304.92 331.969,299.456Z" style="fill:rgb(242,254,233);"/>
            </g>
        </g>
        <g transform="matrix(1.404181,0,0,1.404181,-456.478155,-1009.644164)">
            <g transform="matrix(1.238,0,0,1.448,613.250499,1557.853692)">
                <path d="M441.138,574.543C441.255,577.582 442.058,628.691 440.631,634.535C439.987,637.173 435.088,657.239 411.587,652.109C395.957,648.696 395.176,631.763 395.073,629.527C394.887,625.502 394.992,577.606 394.998,577.525C397.147,545.167 433.947,548.926 439.72,568.434C440.87,572.323 440.997,573.936 441.138,574.543Z" style="fill:rgb(15,81,32);"/>
            </g>
            <g transform="matrix(1.238,0,0,1.448,613.250499,1557.853692)">
                <path d="M690.944,622.5C690.932,623.249 693.074,646.609 675.592,651.801C669.103,653.729 653.263,654.092 647.463,640.518C645.512,635.952 643.581,631.432 644.821,578.509C645.326,556.933 661.573,550.567 676.604,555.172C693.654,560.396 690.863,579.948 690.944,622.5Z" style="fill:rgb(15,82,32);"/>
            </g>
            <g transform="matrix(1.238,0,0,1.448,613.250499,1557.853692)">
                <path d="M245.954,644.5C245.848,646.282 248.343,651.267 241.5,651.306C240.69,651.31 232.113,651.359 231.393,650.583C230.817,649.963 230.191,556.782 231.716,555.787C231.849,555.7 254.376,554.15 262.422,556.79C265.213,557.705 279.779,562.484 277.077,590.454C275.486,606.926 265.798,607.615 266.81,611.432C269.643,622.129 280.377,649.857 278.237,651.052C278.216,651.064 264.185,652.563 263.17,649.648C258.378,635.884 253.99,612.943 250.471,612.814C247.801,612.716 245.981,611.959 245.938,616.496C245.917,618.736 246.077,618.72 245.954,644.5Z" style="fill:rgb(16,82,32);"/>
            </g>
            <g transform="matrix(1.238,0,0,1.448,613.250499,1557.853692)">
                <path d="M702.141,574.499C702.135,559.413 700.902,555.467 705.5,555.405C721.84,555.184 745.126,552.227 747.005,575.551C749.253,603.474 739.952,606.884 737.777,608.771C735.561,610.694 747.94,644.594 748.505,649.5C748.791,651.982 740.772,651.393 735.512,651.312C731.937,651.257 730.239,637.196 723.467,614.513C722.574,611.525 718.953,612.681 718.557,612.807C715.414,613.81 717.755,638.321 716.937,649.609C716.745,652.262 702.653,652.335 702.184,649.567C701.18,643.646 702.099,643.617 702.141,574.499Z" style="fill:rgb(16,82,32);"/>
            </g>
            <g transform="matrix(1.238,0,0,1.448,613.250499,1557.853692)">
                <path d="M369.834,625.508C369.849,625.253 370.022,622.317 370.022,622.317C370.302,621.347 370.621,620.243 382.573,621.065C386.346,621.325 384.258,636.822 381.072,642.273C372.733,656.542 338.382,662.738 338.479,623.5C338.592,577.476 335.748,560.157 353.612,554.933C384.071,546.025 387.585,583.266 383.443,585.381C382.658,585.781 371.677,585.646 371.483,585.61C368.091,584.987 372.474,567.9 361.493,568.262C351.901,568.577 353.704,582.608 353.701,584.501C353.616,631.732 352.218,639.532 362.48,638.317C370.728,637.34 369.792,626.198 369.834,625.508Z" style="fill:rgb(15,81,32);"/>
            </g>
            <g transform="matrix(1.238,0,0,1.448,613.250499,1557.853692)">
                <path d="M562.127,632.589C564.977,641.547 576.421,640.674 577.108,628.468C577.404,623.197 576.144,620.973 581.504,620.939C588.815,620.892 591.926,619.218 591.893,626.5C591.738,660.759 554.67,658.702 548.17,638.609C545.017,628.864 545.654,575.745 547.971,568.635C555.223,546.385 593.959,546.262 591.844,583.553C591.66,586.792 577.379,586.884 577.223,583.537C577.15,581.962 578.545,568.69 569.509,568.285C559.58,567.84 561.336,577.699 561.385,621.499C561.391,627.091 561.198,626.988 562.127,632.589Z" style="fill:rgb(15,82,32);"/>
            </g>
            <g transform="matrix(1.238,0,0,1.448,613.250499,1557.853692)">
                <path d="M328.19,563.501C328.175,563.995 328.019,569.394 326.493,569.446C317.133,569.764 304.955,568.013 304.882,571.532C304.417,593.851 304.553,594.5 306.369,594.983C309.426,595.796 323.787,593.15 323.883,597.467C324.032,604.228 324.625,609.306 321.491,609.344C312.699,609.45 305.004,608.344 304.877,611.527C303.898,636.019 304.506,636.983 306.554,637.122C314.009,637.628 328.326,635.241 328.357,639.508C328.386,643.565 329.632,651.336 325.498,651.33C290.876,651.273 289.875,651.405 289.718,649.465C289.655,648.69 289.658,558.41 289.713,557.516C289.881,554.813 291.612,555.426 319.5,555.4C320.129,555.4 326.928,555.394 327.363,555.71C329.003,556.902 328.111,557.341 328.19,563.501Z" style="fill:rgb(15,82,32);"/>
            </g>
            <g transform="matrix(1.238,0,0,1.448,613.250499,1557.853692)">
                <path d="M146.042,603.498C145.725,607.408 147.364,609.292 143.494,609.331C134.301,609.423 127.018,608.408 126.901,611.527C125.964,636.42 127.452,637.094 129.51,637.128C147.869,637.432 150.354,635.203 150.404,639.506C150.426,641.455 151.338,651.208 148.476,651.273C145.619,651.338 114.746,652.045 112.746,651.04C110.898,650.111 111.968,556.528 112.167,556.289C113.217,555.024 149.562,554.505 150.1,556.616C150.261,557.25 150.242,567.903 150.026,568.326C148.428,571.449 127.101,566.892 126.907,571.532C125.974,593.884 126.556,594.483 128.369,594.976C131.225,595.753 145.867,593.163 145.956,597.46C145.966,597.943 145.963,597.908 146.042,603.498Z" style="fill:rgb(16,81,32);"/>
            </g>
            <g transform="matrix(1.238,0,0,1.448,613.250499,1557.853692)">
                <path d="M536.941,562.5C536.935,563.304 538.165,569.367 534.496,569.425C519.791,569.655 514.194,567.875 514.191,572.495C514.178,591.364 513.439,595.011 516.522,595.102C530.802,595.519 533.001,593.598 533.099,597.518C533.143,599.297 533.852,609.191 531.464,609.29C515.842,609.937 514.258,608.699 514.201,611.471C513.7,636.119 514.462,637.066 516.522,637.125C517.64,637.157 517.619,637.051 530.503,637.119C531.053,637.122 536.67,637.151 537.22,638.568C537.344,638.887 537.453,649.695 537.082,650.306C536.668,650.988 536.496,651.369 505.501,651.313C501.109,651.305 499.125,652.875 499.054,648.523C498.927,640.859 499.15,574.113 498.984,558.504C498.969,557.088 498.922,555.454 501.495,555.419C504.216,555.382 531.935,555.01 535.502,555.492C538.277,555.867 536.775,557.171 536.941,562.5Z" style="fill:rgb(16,82,33);"/>
            </g>
            <g transform="matrix(1.238,0,0,1.448,613.250499,1557.853692)">
                <path d="M595.893,562.501C596.152,557.112 594.814,555.98 597.495,555.477C598.078,555.367 636.21,555.372 637.507,555.451C640.053,555.607 639.483,562.398 639.293,567.471C639.161,570.988 627.274,568.824 625.795,569.864C624.332,570.892 625.442,630.243 625.085,648.483C625.008,652.458 617.365,651.339 612.51,651.293C609.247,651.262 610.184,644.612 610.176,635.502C610.15,605.699 610.27,571.27 610.068,570.629C609.508,568.856 598.632,569.446 598.502,569.445C593.929,569.402 596.207,567.061 595.893,562.501Z" style="fill:rgb(16,82,32);"/>
            </g>
            <g transform="matrix(1.238,0,0,1.448,613.250499,1557.853692)">
                <path d="M176.238,611.5C176.26,634.249 175.628,637.021 178.53,637.129C197.208,637.83 198.816,636.545 198.871,639.468C198.987,645.646 200.173,651.269 195.499,651.319C162.979,651.667 161.54,652.294 161.2,649.567C161.099,648.761 161.143,558.018 161.164,557.461C161.294,554.024 175.01,555.191 175.895,556.215C175.995,556.33 176.387,556.345 176.238,611.5Z" style="fill:rgb(15,82,32);"/>
            </g>
            <g transform="matrix(1.238,0,0,1.448,613.250499,1557.853692)">
                <path d="M468.417,611.5C468.407,632.671 467.683,636.951 470.538,637.081C486.393,637.801 490.249,634.485 490.308,641.501C490.314,642.27 490.384,650.576 489.297,651.068C489.272,651.08 454.967,652.179 453.6,650.441C453.22,649.957 452.609,556.949 453.885,555.892C454.141,555.68 468.1,553.681 468.381,557.51C468.696,561.818 468.365,561.802 468.417,611.5Z" style="fill:rgb(14,80,31);"/>
            </g>
            <g transform="matrix(1.238,0,0,1.448,613.250499,1557.853692)">
                <path d="M341.922,740.549C342.627,738.571 342.245,738.408 343.911,736.983C347.024,734.32 415.67,727.245 515.551,732.124C518.359,732.261 518.357,734.749 515.541,734.883C478.762,736.628 478.801,735.773 441.478,738.042C348.153,743.717 343.155,749.365 341.922,740.549Z" style="fill:rgb(70,142,25);"/>
            </g>
            <g transform="matrix(1.238,0,0,1.448,613.250499,1557.853692)">
                <path d="M409.939,605.499C409.938,603.499 409.923,580.981 409.932,580.504C410.24,563.128 426.311,564.737 426.677,579.495C428.048,634.826 425.895,635.897 421.576,637.68C407.043,643.681 410.069,618.227 409.939,605.499Z" style="fill:rgb(252,253,252);"/>
            </g>
            <g transform="matrix(1.238,0,0,1.448,613.250499,1557.853692)">
                <path d="M676.059,585.499C676.13,632.467 677.399,640.901 665.598,638.104C658.875,636.511 659.692,633.148 659.774,583.502C659.778,581.477 658.366,568.846 667.481,568.211C671.859,567.906 673.991,571.099 674.33,571.608C675.757,573.745 676.03,584.38 676.059,585.499Z" style="fill:rgb(251,253,252);"/>
            </g>
            <g transform="matrix(1.238,0,0,1.448,613.250499,1557.853692)">
                <path d="M378.27,707.625C377.918,707.631 377.852,706.894 377.5,706.9C377.115,706.907 376.282,708.55 374.533,709.556C356.985,719.644 349.895,682.915 369.502,683.059C377.408,683.118 376.01,686.246 376.635,686.244C378.896,686.237 378.069,678.522 378.079,676.486C378.107,671.056 383.638,673.674 384.069,674.623C384.66,675.922 384.211,704.863 384.17,707.492C384.106,711.63 378.747,712.567 378.27,707.625Z" style="fill:rgb(71,142,27);"/>
            </g>
            <g transform="matrix(1.238,0,0,1.448,613.250499,1557.853692)">
                <path d="M463.362,686.406C463.296,676.71 462.484,672.62 467.514,673.41C469.765,673.764 469.337,674.901 469.333,704.5C469.331,715.87 463.744,708.97 463.635,708.428C463.027,705.411 454.932,716.269 446.539,707.463C435.078,695.437 450.948,675.27 461.369,685.742C462.207,686.584 462.254,686.274 463.362,686.406Z" style="fill:rgb(70,140,26);"/>
            </g>
            <g transform="matrix(1.238,0,0,1.448,613.250499,1557.853692)">
                <path d="M554.04,697.488C553.78,699.117 551.078,716.006 537.705,710.061C537.252,709.859 533.083,705.776 533.072,709.408C533.049,717 535.682,721.95 528.398,719.765C525.779,718.98 527.354,684.643 527.479,684.485C527.498,684.459 531.684,682.186 532.863,685.32C534.202,688.879 538.901,679.178 548.172,684.971C554.397,688.86 552.563,690.25 554.04,697.488Z" style="fill:rgb(73,142,30);"/>
            </g>
            <g transform="matrix(1.238,0,0,1.448,613.250499,1557.853692)">
                <path d="M632.249,699.463C627.198,721.814 596.65,707.989 606.799,689.677C610.843,682.38 632.176,676.091 632.249,699.463Z" style="fill:rgb(72,141,28);"/>
            </g>
            <g transform="matrix(1.238,0,0,1.448,613.250499,1557.853692)">
                <path d="M419.913,697.508C414.947,725.825 380.096,704.461 396.775,686.779C401.253,682.031 418.599,679.231 419.913,697.508Z" style="fill:rgb(71,141,27);"/>
            </g>
            <g transform="matrix(1.238,0,0,1.448,613.250499,1557.853692)">
                <path d="M246.13,702.487C248.92,686.94 267.163,699.552 263.23,691.606C260.504,686.097 252.039,689.625 251.555,689.733C249.164,690.268 246.112,685.621 252.624,683.979C273.347,678.754 269.55,699.853 269.637,703.489C269.661,704.516 273.135,709.598 269.512,710.547C266.678,711.289 266.849,710.267 264.395,708.615C263.35,707.912 247.755,717.171 246.13,702.487Z" style="fill:rgb(72,142,29);"/>
            </g>
            <g transform="matrix(1.238,0,0,1.448,613.250499,1557.853692)">
                <path d="M325.799,700.574C331.499,687.698 343.888,698.922 342.811,692.464C341.713,685.882 330.533,689.995 329.439,689.612C326.564,688.605 327.736,682.861 338.519,683.175C351.78,683.562 348.925,700.775 348.926,701.5C348.936,706.874 352.115,708.292 349.394,710.318C345.378,713.31 344.664,706.806 340.438,709.396C338.319,710.694 324.751,714.893 325.799,700.574Z" style="fill:rgb(73,141,29);"/>
            </g>
            <g transform="matrix(1.238,0,0,1.448,613.250499,1557.853692)">
                <path d="M192.02,695.471C190.738,698.854 189.477,698.118 149.5,698.149C115.075,698.176 109.336,699.182 112.338,693.392C112.993,692.128 113.504,692.277 175.5,692.286C179.312,692.287 189.511,692.215 190.494,692.515C192.141,693.017 191.996,695.342 192.02,695.471Z" style="fill:rgb(72,142,27);"/>
            </g>
            <g transform="matrix(1.238,0,0,1.448,613.250499,1557.853692)">
                <path d="M477.869,698.475C479.253,674.854 502.43,680.869 502.942,696.512C503.122,702.02 482.369,695.697 484.398,701.533C487.388,710.136 498.085,703.096 499.3,703.828C506.975,708.455 481.162,720.188 477.869,698.475Z" style="fill:rgb(73,141,30);"/>
            </g>
            <g transform="matrix(1.238,0,0,1.448,613.250499,1557.853692)">
                <path d="M261.873,587.518C260.953,597.345 258.983,598.981 248.509,599.02C245.324,599.031 246.039,596.303 245.958,575.502C245.941,571.216 245.417,569.188 251.501,569.374C264.17,569.763 261.822,579.984 261.873,587.518Z" style="fill:rgb(251,253,251);"/>
            </g>
            <g transform="matrix(1.238,0,0,1.448,613.250499,1557.853692)">
                <path d="M717.059,592.5C716.901,576.077 716.587,569.893 718.487,569.45C731.413,566.438 732.22,578.145 732.314,579.509C733.595,598.095 727.627,598.989 721.496,599.026C715.229,599.063 717.115,595.894 717.059,592.5Z" style="fill:rgb(250,253,251);"/>
            </g>
            <g transform="matrix(1.238,0,0,1.448,613.250499,1557.853692)">
                <path d="M750.16,695.473C748.789,699.031 747.425,698.077 703.499,698.146C691.04,698.166 677.804,699.72 681.279,693.336C681.678,692.603 681.885,692.197 739.501,692.29C740.326,692.291 749.24,692.306 749.756,693.33C749.835,693.486 749.786,693.489 750.16,695.473Z" style="fill:rgb(72,142,28);"/>
            </g>
            <g transform="matrix(1.238,0,0,1.448,613.250499,1557.853692)">
                <path d="M598.034,702.506C594.837,720.575 570.524,705.398 579.533,703.595C580.299,703.442 591.812,709.537 592.201,703.474C592.507,698.713 572.352,698.333 579.806,686.713C584.052,680.094 601.318,683.97 595.312,689.293C594.483,690.028 581.826,685.057 584.335,691.577C586.047,696.027 595.683,691.594 598.034,702.506Z" style="fill:rgb(73,140,30);"/>
            </g>
            <g transform="matrix(1.238,0,0,1.448,613.250499,1557.853692)">
                <path d="M640.141,691.51C641.27,678.225 659.261,683.416 657.993,687.669C656.503,692.666 646.105,684.097 645.893,690.507C645.829,692.443 652.898,695.04 653.578,695.289C668.411,700.737 654.109,717.873 640.715,708.219C639.881,707.618 637.477,701.38 644.38,704.75C645.014,705.06 650.471,707.723 653.187,705.164C659.399,699.313 641.872,702.138 640.141,691.51Z" style="fill:rgb(73,141,29);"/>
            </g>
            <g transform="matrix(1.238,0,0,1.448,613.250499,1557.853692)">
                <path d="M284.193,696.483C285.312,711.615 298.121,702.757 299.583,703.341C309.637,707.363 281.899,720.408 278.265,698.526C275.591,682.431 300.236,679.766 301.373,687.526C301.565,688.841 299.146,691.773 296.662,690.24C292.363,687.588 286.033,686.783 284.193,696.483Z" style="fill:rgb(73,143,30);"/>
            </g>
            <g transform="matrix(1.238,0,0,1.448,613.250499,1557.853692)">
                <path d="M226.721,702.301C227.044,701.916 227.907,702.668 228.23,702.282C229.132,701.205 228.011,700.754 233.807,685.635C234.796,683.057 239.128,683.74 239.344,683.859C241.209,684.877 231.018,709.869 229.455,710.363C223.816,712.144 223.279,707.324 217.495,692.502C215.243,686.731 212.294,683.117 218.477,683.784C220.089,683.957 222.138,684.178 226.721,702.301Z" style="fill:rgb(72,142,27);"/>
            </g>
            <g transform="matrix(1.238,0,0,1.448,613.250499,1557.853692)">
                <path d="M625.945,694.394C628.695,713.306 605.08,704.728 611.84,692.658C614.709,687.535 623.165,685.833 625.945,694.394Z" style="fill:rgb(250,253,246);"/>
            </g>
            <g transform="matrix(1.238,0,0,1.448,613.250499,1557.853692)">
                <path d="M413.943,697.522C411.412,715.618 390.069,699.398 401.78,689.841C402.736,689.061 406.204,687.693 409.604,689.305C413.261,691.039 413.865,696.782 413.943,697.522Z" style="fill:rgb(251,254,247);"/>
            </g>
            <g transform="matrix(1.238,0,0,1.448,613.250499,1557.853692)">
                <path d="M547.871,697.512C545.908,713.927 526.312,702.264 534.962,690.886C536.082,689.412 546.676,683.583 547.871,697.512Z" style="fill:rgb(250,254,248);"/>
            </g>
            <g transform="matrix(1.238,0,0,1.448,613.250499,1557.853692)">
                <path d="M377.922,699.598C372.429,715.131 356.561,697.931 366.696,689.746C368.938,687.935 379.841,686.528 377.922,699.598Z" style="fill:rgb(250,253,246);"/>
            </g>
            <g transform="matrix(1.238,0,0,1.448,613.250499,1557.853692)">
                <path d="M449.179,694.427C453.863,682.856 461.934,689.962 463.176,694.582C466.154,705.665 448.057,713.309 449.179,694.427Z" style="fill:rgb(250,254,247);"/>
            </g>
            <g transform="matrix(1.238,0,0,1.448,613.250499,1557.853692)">
                <path d="M562.702,703.5C562.696,689.708 562.664,685.143 562.935,684.698C563.757,683.354 567.578,683.518 568.45,684.533C568.554,684.654 570.073,709.651 567.477,710.433C562.161,712.036 562.875,709.111 562.702,703.5Z" style="fill:rgb(72,138,27);"/>
            </g>
            <g transform="matrix(1.238,0,0,1.448,613.250499,1557.853692)">
                <path d="M310.841,696.5C310.881,686.37 310.826,686.433 310.885,685.559C311.015,683.623 316.723,682.103 316.758,686.487C316.939,709.374 316.812,710.505 314.505,710.565C309.265,710.703 310.838,704.322 310.841,696.5Z" style="fill:rgb(71,140,31);"/>
            </g>
            <g transform="matrix(1.238,0,0,1.448,613.250499,1557.853692)">
                <path d="M263.766,701.537C260.29,712.135 246.585,703.587 254.66,698.792C256.64,697.616 260.074,698.156 260.541,698.23C264.318,698.825 263.579,699.917 263.766,701.537Z" style="fill:rgb(248,253,244);"/>
            </g>
            <g transform="matrix(1.238,0,0,1.448,613.250499,1557.853692)">
                <path d="M342.902,701.545C339.748,712.617 326.123,702.939 333.74,698.883C334.153,698.663 336.009,697.675 339.547,698.17C343.438,698.716 342.698,699.882 342.902,701.545Z" style="fill:rgb(247,253,243);"/>
            </g>
            <g transform="matrix(1.238,0,0,1.448,613.250499,1557.853692)">
                <path d="M495.899,691.284C497.156,693.726 497.367,694.904 494.548,694.955C493.746,694.97 485.157,695.128 484.532,694.474C484.228,694.156 486.249,681.669 495.899,691.284Z" style="fill:rgb(247,252,241);"/>
            </g>
            <g transform="matrix(1.238,0,0,1.448,613.250499,1557.853692)">
                <path d="M317.093,676.488C314.888,684.455 307.168,675.74 311.599,673.685C316.121,671.587 316.997,676.004 317.093,676.488Z" style="fill:rgb(76,142,38);"/>
            </g>
            <g transform="matrix(1.238,0,0,1.448,613.250499,1557.853692)">
                <path d="M568.941,676.521C567.139,684.395 558.966,675.813 563.607,673.704C568.288,671.578 568.877,676.042 568.941,676.521Z" style="fill:rgb(76,141,39);"/>
            </g>
        </g>
    </g>
</svg>
