<?xml version="1.0" encoding="UTF-8" standalone="no"?>
<!DOCTYPE svg PUBLIC "-//W3C//DTD SVG 1.1//EN" "http://www.w3.org/Graphics/SVG/1.1/DTD/svg11.dtd">
<svg width="100%" height="100%" viewBox="0 0 2000 500" version="1.1" xmlns="http://www.w3.org/2000/svg" xmlns:xlink="http://www.w3.org/1999/xlink" xml:space="preserve" xmlns:serif="http://www.serif.com/" style="fill-rule:evenodd;clip-rule:evenodd;stroke-linecap:round;stroke-linejoin:round;stroke-miterlimit:1.5;">
    <g transform="matrix(1,0,0,1,-2110,0)">
        <g id="El-Recolector-v4-vectores" serif:id="El Recolector v4 vectores" transform="matrix(1.333333,0,0,1,2110,550)">
            <rect x="0" y="-550" width="1500" height="500" style="fill:none;"/>
            <g transform="matrix(0.571855,0,0,0.651893,-27.259443,-1907.544366)">
                <g transform="matrix(1.055207,0,0,1.2342,-108.627736,2093.658357)">
                    <path d="M304.163,414.348C303.647,414.194 303.872,413.104 303.356,412.949C302.115,412.578 300.765,412.979 299.47,412.944C292.886,412.765 278.488,411.708 277.33,412.039C275.618,412.529 277.196,417.015 270.583,415.206C266.054,413.966 266.266,412.177 266.347,362.5C266.384,340.166 263.701,333.943 277.555,334.153C281.423,334.211 277.63,356.25 280.46,357.563C282.823,358.659 430.197,353.65 431.482,353.428C437.563,352.383 425.001,323.693 443.543,321.896C450.427,321.228 529.568,325.353 535.459,325.846C541.063,326.315 542.307,334.143 542.031,335.37C541.518,337.655 524.705,334.097 499.494,335.319C471.091,336.695 459.375,334.066 457.517,343.504C456.802,347.135 452.883,413.987 456.93,419.094C462.532,426.161 465.306,420.633 472.529,419.924C495.122,417.704 502.729,443.874 502.916,444.326C505.762,451.195 516.894,448.368 517.279,447.411C520.589,439.182 519.425,422.71 519.57,402.5C519.786,372.296 510.014,368.458 503.612,348.471C500.442,338.574 510.365,338.542 561.475,341.953C574.47,342.821 575.989,349.377 590.96,376.241C606.281,403.731 603.818,405.033 602.675,436.5C602.556,439.775 608.011,439.055 605.71,454.531C604.645,461.697 598.719,460.274 548.519,463.752C515.618,466.032 515.673,463.392 505.531,463.82C502.201,463.961 503.383,486.179 480.496,486.212C456.962,486.245 456.226,460.96 454.439,459.597C453.29,458.719 349.171,450.304 344.474,449.727C338.655,449.013 342.972,439.081 337.007,427.75C321.825,398.913 299.753,421.551 298.175,439.469C297.652,445.404 295.26,444.119 289.489,442.536C274.942,438.545 279.625,423.681 280.215,422.36C284.4,413 294.702,423.408 304.163,414.348Z" style="fill:rgb(15,82,32);"/>
                </g>
                <g transform="matrix(1.055207,0,0,1.2342,-108.627736,2093.658357)">
                    <path d="M204.051,301.506C204.028,289.172 203.896,217.722 256.552,156.544C364.622,30.986 552.136,64.236 619.06,197.73C672.222,303.774 620.339,390.692 616.383,400.397C615.257,403.159 614.302,397.84 614.252,397.561C612.605,388.394 608.038,388.565 611.461,380.484C660.462,264.807 600.199,160.518 524.446,118.594C369.038,32.586 196.83,168.089 220.009,326.568C231.347,404.087 273.92,431.118 254.544,423.361C249.567,421.369 240.079,419.444 238.322,416.621C202.536,359.117 204.101,304.695 204.051,301.506Z" style="fill:rgb(66,140,18);"/>
                </g>
                <g transform="matrix(1.055207,0,0,1.2342,-108.627736,2093.658357)">
                    <path d="M364.253,294.171C361.981,291.23 363.3,290.795 362.941,246.494C362.938,246.134 362.885,239.551 360.66,242.61C358.845,245.104 363.273,310.514 357.588,311.721C350.229,313.284 333.525,312.246 335.981,330.402C336.551,334.618 338.762,333.985 338.771,339.498C338.772,340.485 339.354,350.317 337.633,350.778C327.114,353.598 327.085,349.385 327.079,348.521C326.799,308.436 327.893,246.73 326.296,245.801C321.818,243.198 323.804,248.361 323.878,310.501C323.926,349.9 324.211,351.367 321.498,351.482C318.697,351.601 287.744,352.914 286.468,352.714C284.5,352.407 284.698,351.339 284.706,286.501C284.71,249.828 285.071,249.338 283.246,247.837C276.147,242.001 288.79,240.937 289.538,240.874C291.044,240.748 310.221,239.603 328.524,237.711C359.894,234.469 364.654,234.675 371.379,237.79C376.144,239.997 371.205,243.911 371.165,246.479C370.55,286.035 373.284,287.968 367.706,290.902C365.47,292.077 365.733,292.247 364.253,294.171Z" style="fill:rgb(65,139,16);"/>
                </g>
                <g transform="matrix(1.055207,0,0,1.2342,-108.627736,2093.658357)">
                    <path d="M211.951,433.461C211.829,432.196 210.731,420.861 210.874,417.619C210.96,415.678 215.564,419.734 215.899,420.029C244.096,444.868 289.053,437.916 309.013,487.687C311.277,493.333 313.934,508.475 313.228,509.334C310.485,512.669 309.01,500.294 269.777,477.027C244.189,461.851 245.222,460.109 243.541,459.997C234.788,459.412 302.986,508.252 307.291,517.545C308.577,520.321 289.197,521.657 278.465,519.685C220.757,509.08 212.959,442.114 211.951,433.461Z" style="fill:rgb(65,139,16);"/>
                </g>
                <g transform="matrix(1.055207,0,0,1.2342,-108.627736,2093.658357)">
                    <path d="M529.861,185.5C529.826,196.174 526.968,198.166 535.795,204.068C574.142,229.71 576.89,230.449 574.301,233.325C571.821,236.081 571.047,233.458 501.23,191.94C429.834,149.483 425.606,145.515 422.378,147.272C410.846,153.551 411.208,154.009 281.517,231.528C280.989,231.844 275.373,235.201 274.168,233.799C271.133,230.267 275.198,230.281 320.744,198.871C328.691,193.39 371.596,165.191 418.763,132.888C425.904,127.997 426.884,130.871 443.772,142.102C504.898,182.751 507.782,186.885 507.819,182.558C507.827,181.593 507.717,181.61 507.747,170.499C507.759,165.946 505.955,163.812 510.514,163.745C526.999,163.5 527.048,163.306 528.332,163.925C530.312,164.88 529.85,168.699 529.861,185.5Z" style="fill:rgb(68,140,20);"/>
                </g>
                <g transform="matrix(1.055207,0,0,1.2342,-108.627736,2093.658357)">
                    <path d="M325.867,498.411C324.197,492.076 324.16,491.943 324.561,491.555C325.04,491.092 327.289,492.37 327.504,492.492C330.31,494.086 346.17,503.099 364.445,508.696C437.018,530.926 491.164,507.551 504.341,502.156C518.1,496.523 518.203,497.139 532.457,493.207C540.02,491.122 530.821,499.107 524.926,505.878C511.946,520.788 417.413,552.317 334.66,512.165C326.774,508.338 327.715,506.985 325.867,498.411Z" style="fill:rgb(68,141,20);"/>
                </g>
                <g transform="matrix(1.055207,0,0,1.2342,-108.627736,2093.658357)">
                    <path d="M371.558,329.351C370.196,316.766 369.156,316.71 364.757,314.293C364.523,314.164 360.103,293.994 378.504,293.803C404.271,293.536 407.22,294.49 409.588,295.257C410.728,295.626 410.608,293.825 424.5,293.826C445.702,293.828 461.056,291.527 461.131,303.517C461.179,311.021 463.814,313.909 456.446,315.134C440.459,317.792 431.824,314.246 428.744,325.562C427.051,331.782 424.929,329.791 418.501,329.781C409.707,329.768 409.708,329.773 404.454,331.344C401.239,332.305 401.553,329.512 395.501,329.439C383.525,329.295 375.997,329.92 371.558,329.351Z" style="fill:rgb(67,140,18);"/>
                </g>
                <g transform="matrix(1.055207,0,0,1.2342,-108.627736,2093.658357)">
                    <path d="M612.759,494.656C590.947,528.667 570.712,531.435 542.434,523.781C538.247,522.648 516.899,539.056 531.329,523.341C547.489,505.742 545.858,485.609 593.506,480.556C618.692,477.886 624.72,465.271 622.522,472.502C619.913,481.083 613.662,492.942 612.759,494.656Z" style="fill:rgb(66,140,17);"/>
                </g>
                <g transform="matrix(1.055207,0,0,1.2342,-108.627736,2093.658357)">
                    <path d="M518.247,362.61C516.027,357.412 516.017,357.499 513.795,352.374C510.971,345.86 522.002,347.743 529.515,348.08C562.486,349.557 568.614,347.868 573.245,355.649C591.565,386.423 591.443,387.872 589.319,389.167C586.468,390.904 539.785,388.917 535.482,388.734C527.303,388.386 526.072,380.67 518.247,362.61Z" style="fill:rgb(252,253,252);"/>
                </g>
                <g transform="matrix(1.055207,0,0,1.2342,-108.627736,2093.658357)">
                    <path d="M484.058,260.431C484.18,259.784 484.199,259.119 484.321,258.472C486.006,249.574 489.966,255.986 492.524,256.325C501.287,257.487 501.232,257.495 509.402,260.783C511.165,261.492 517.833,258.053 515.697,265.563C508.419,291.157 505.411,290.875 506.785,317.512C506.906,319.854 505.223,319.899 504.539,319.937C499.448,320.224 501.583,307.639 500.515,306.488C499.78,305.695 491.13,308.941 490.34,309.238C488.329,309.992 489.311,317.718 487.485,318.47C481.002,321.142 484.875,310.107 482.286,308.993C476.431,306.475 478.612,316.791 475.467,317.307C470.882,318.059 472.935,312.561 473.647,308.523C474.477,303.819 466.655,304.388 465.748,301.417C464.494,297.312 464.554,297.355 462.484,293.507C461.313,291.332 463.352,291.9 477.525,287.557C478.741,287.185 479.1,286.998 484.058,260.431Z" style="fill:rgb(69,141,22);"/>
                </g>
                <g transform="matrix(1.055207,0,0,1.2342,-108.627736,2093.658357)">
                    <path d="M466.078,358.49C466.113,357.103 464.327,347.212 471.507,346.987C490.549,346.393 493.778,347.629 495.58,348.319C501.132,350.445 512.759,380.684 512.812,388.502C512.89,400.064 495.114,390.667 494.651,390.3C486.983,384.218 484.67,386.751 470.419,383.85C465.195,382.786 465.284,379.724 466.078,358.49Z" style="fill:rgb(15,81,31);"/>
                </g>
                <g transform="matrix(1.055207,0,0,1.2342,-108.627736,2093.658357)">
                    <path d="M368.656,329.636C364.345,333.094 354.482,329.321 354.757,341.431C354.782,342.552 356.493,343.511 356.838,340.645C357.64,333.993 360.467,335.606 382.5,335.532C389.127,335.509 390.62,333.452 393.782,339.232C395.204,341.832 394.331,336.113 398.534,335.833C399.25,335.786 425.436,335.62 426.362,335.891C428.16,336.419 428.798,347.914 424.461,348.114C418.067,348.409 347.411,351.668 344.481,350.538C340.391,348.962 346.979,341.649 340.724,331.385C340.228,330.571 337.37,320.422 346.562,318.867C357.549,317.007 363.216,315.258 366.231,317.815C368.657,319.873 368.656,328.671 368.656,329.636Z" style="fill:rgb(67,141,19);"/>
                </g>
                <g transform="matrix(1.055207,0,0,1.2342,-108.627736,2093.658357)">
                    <path d="M336.208,443.537C336.942,450.165 336.991,451.062 343.363,452.82C348.475,454.229 336.732,478.236 317.463,471.606C294.03,463.544 300.813,413.187 324.305,422.99C333.287,426.739 335.882,441.666 336.208,443.537Z" style="fill:rgb(16,82,33);"/>
                </g>
                <g transform="matrix(1.055207,0,0,1.2342,-108.627736,2093.658357)">
                    <path d="M438.079,241.598C443.912,263.757 444.75,264 443.449,265.461C441.006,268.205 428.263,263.704 428.261,269.497C428.255,284.49 429.647,290.044 424.479,289.668C419.703,289.32 425.413,266.678 420.494,266.543C418.21,266.48 405.906,267.833 406.912,263.559C413.34,236.253 414.15,235.794 416.506,235.557C417.162,235.491 432.777,235.478 434.479,235.62C436.958,235.826 437.88,240.982 438.079,241.598Z" style="fill:rgb(67,141,19);"/>
                </g>
                <g transform="matrix(1.055207,0,0,1.2342,-108.627736,2093.658357)">
                    <path d="M464.109,457.507C465.602,435.677 481.931,438.058 487.012,449.713C496.402,471.257 466.781,487.034 464.109,457.507Z" style="fill:rgb(247,253,248);"/>
                </g>
                <g transform="matrix(1.055207,0,0,1.2342,-108.627736,2093.658357)">
                    <path d="M432.94,421.497C432.717,427.645 429.078,424.396 390.488,422.813C386.575,422.653 343.424,420.883 341.605,420.158C339.764,419.425 334.513,414.344 337.453,414.368C353.924,414.498 423.052,418.219 430.492,418.619C433.526,418.782 432.768,420.185 432.94,421.497Z" style="fill:rgb(243,250,245);"/>
                </g>
                <g transform="matrix(1.055207,0,0,1.2342,-108.627736,2093.658357)">
                    <path d="M574.192,469.337C572.756,471.442 569.332,479.429 556.503,480.556C541.52,481.871 532.966,468.763 538.457,468.266C541.324,468.007 572.934,465.147 574.354,465.855C576.152,466.75 574.898,467.258 574.192,469.337Z" style="fill:rgb(16,81,33);"/>
                </g>
                <g transform="matrix(1.055207,0,0,1.2342,-108.627736,2093.658357)">
                    <path d="M486.027,280.419C487.297,274.439 487.08,274.494 488.34,268.44C489.123,264.68 506.462,270.686 507.105,272.576C507.445,273.574 501.897,291.341 501.727,291.672C501.149,292.797 500.693,292.421 486.437,287.64C484.858,287.11 485.927,280.989 486.027,280.419Z" style="fill:rgb(250,253,248);"/>
                </g>
                <g transform="matrix(1.055207,0,0,1.2342,-108.627736,2093.658357)">
                    <path d="M311.087,442.446C311.178,441.978 311.829,438.611 312.994,436.801C323.648,420.254 336.419,457.101 320.509,460.542C309.853,462.847 310.989,444.075 311.087,442.446Z" style="fill:rgb(243,252,245);"/>
                </g>
                <g transform="matrix(1.055207,0,0,1.2342,-108.627736,2093.658357)">
                    <path d="M421.224,463.323C405.052,485.171 380.185,456.898 389.499,457.432C392.052,457.579 417.86,459.06 421.368,459.84C423.556,460.327 422.024,461.121 421.224,463.323Z" style="fill:rgb(18,83,34);"/>
                </g>
                <g transform="matrix(1.055207,0,0,1.2342,-108.627736,2093.658357)">
                    <path d="M529.901,432.441C529.621,427.103 529.482,427.177 529.648,424.513C529.728,423.237 529.975,419.285 545.578,423.215C551.179,424.626 554.645,436.622 548.523,436.85C536.546,437.296 531.472,438.587 529.901,432.441Z" style="fill:rgb(249,252,250);"/>
                </g>
                <g transform="matrix(1.055207,0,0,1.2342,-108.627736,2093.658357)">
                    <path d="M470.065,457.505C471.192,444.143 482.315,445.233 483.587,457.497C484.472,466.023 472.101,474.33 470.065,457.505Z" style="fill:rgb(17,81,34);"/>
                </g>
                <g transform="matrix(1.055207,0,0,1.2342,-108.627736,2093.658357)">
                    <path d="M553.647,510.757C571.606,501.034 572.317,502.39 585.419,497.154C585.66,497.058 600.972,493.009 588.426,498.381C547.563,515.878 549.368,520.3 545.528,520.078C539.978,519.758 552.821,511.301 553.647,510.757Z" style="fill:rgb(229,247,216);"/>
                </g>
                <g transform="matrix(1.055207,0,0,1.2342,-108.627736,2093.658357)">
                    <path d="M589.111,428.434C589.194,428.089 589.44,423.464 593.597,421.741C597.975,419.925 600.243,419.572 600.286,422.516C600.417,431.399 601.401,434.43 592.517,434.824C586.988,435.07 588.661,432.044 589.111,428.434Z" style="fill:rgb(248,253,249);"/>
                </g>
                <g transform="matrix(1.055207,0,0,1.2342,-108.627736,2093.658357)">
                    <path d="M316.296,441.396C322.439,432.853 326.797,445.287 324.868,450.633C322.165,458.122 312.163,455.418 316.296,441.396Z" style="fill:rgb(17,80,32);"/>
                </g>
                <g transform="matrix(1.055207,0,0,1.2342,-108.627736,2093.658357)">
                    <path d="M562.279,451.512C562.343,451.179 561.926,449 564.529,448.698C565.73,448.559 575.476,447.853 579.511,447.76C585.236,447.627 584.591,453.136 579.499,453.48C563.887,454.537 563.054,454.27 562.279,451.512Z" style="fill:rgb(241,250,243);"/>
                </g>
                <g transform="matrix(1.055207,0,0,1.2342,-108.627736,2093.658357)">
                    <path d="M573.512,427.775C574.285,427.75 582.843,427.473 583.148,428.554C583.759,430.723 579.83,430.987 579.478,431.01C559.501,432.352 559.054,432.145 558.262,430.644C556.327,426.978 567.147,427.881 573.512,427.775Z" style="fill:rgb(227,243,231);"/>
                </g>
                <g transform="matrix(1.055207,0,0,1.2342,-108.627736,2093.658357)">
                    <path d="M464.148,402.504C464.713,400.391 464.253,399.706 466.501,399.505C468.33,399.341 473.279,399.336 474.226,399.949C480.543,404.038 466.232,409.861 464.148,402.504Z" style="fill:rgb(19,79,34);"/>
                </g>
                <g transform="matrix(1.055207,0,0,1.2342,-108.627736,2093.658357)">
                    <path d="M408.771,319.523C408.329,324.797 409.097,325.703 407.496,325.691C405.2,325.674 406.999,299.276 409.844,303.21C409.925,303.322 410.044,303.358 408.771,319.523Z" style="fill:rgb(192,245,162);"/>
                </g>
                <g transform="matrix(1.055207,0,0,1.2342,-108.627736,2093.658357)">
                    <path d="M314.26,299.523C314.35,299.213 315.272,296.032 317.345,296.937C321.08,298.567 316.315,304.471 314.26,299.523Z" style="fill:rgb(243,254,232);"/>
                </g>
                <g transform="matrix(1.055207,0,0,1.2342,-108.627736,2093.658357)">
                    <path d="M331.969,299.456C332.065,299.141 333.108,295.723 335.245,296.962C338.349,298.761 334.516,304.92 331.969,299.456Z" style="fill:rgb(242,254,233);"/>
                </g>
            </g>
            <g transform="matrix(0.784806,0,0,1.046408,-50.659235,-581.539524)">
                <path d="M477.418,123.271L539.016,123.271L539.016,143.804L500.004,143.804L500.004,181.79L531.009,181.79L531.009,202.322L500.004,202.322L500.004,246.467L539.016,246.467L539.016,267L477.418,267L477.418,123.271Z" style="fill:rgb(15,82,32);fill-rule:nonzero;"/>
                <path d="M572.485,123.271L595.07,123.271L595.07,246.467L632.235,246.467L632.235,267L572.485,267L572.485,123.271Z" style="fill:rgb(15,82,32);fill-rule:nonzero;"/>
                <path d="M717.034,123.271L750.503,123.271C762.138,123.271 770.625,125.975 775.963,131.382C781.302,136.789 783.971,145.105 783.971,156.329L783.971,165.158C783.971,180.078 779.043,189.523 769.187,193.493L769.187,193.904C774.663,195.546 778.53,198.9 780.788,203.965C783.047,209.029 784.176,215.805 784.176,224.292L784.176,249.547C784.176,253.654 784.313,256.973 784.587,259.506C784.861,262.038 785.545,264.536 786.64,267L763.643,267C762.822,264.673 762.275,262.483 762.001,260.43C761.727,258.376 761.59,254.68 761.59,249.342L761.59,223.06C761.59,216.49 760.529,211.904 758.408,209.303C756.286,206.702 752.624,205.402 747.423,205.402L739.62,205.402L739.62,267L717.034,267L717.034,123.271ZM747.833,184.869C752.351,184.869 755.738,183.706 757.997,181.379C760.256,179.052 761.385,175.151 761.385,169.675L761.385,158.588C761.385,153.386 760.461,149.622 758.613,147.295C756.765,144.968 753.856,143.804 749.887,143.804L739.62,143.804L739.62,184.869L747.833,184.869Z" style="fill:rgb(15,82,32);fill-rule:nonzero;"/>
                <path d="M820.314,123.271L881.912,123.271L881.912,143.804L842.9,143.804L842.9,181.79L873.904,181.79L873.904,202.322L842.9,202.322L842.9,246.467L881.912,246.467L881.912,267L820.314,267L820.314,123.271Z" style="fill:rgb(15,82,32);fill-rule:nonzero;"/>
                <path d="M947.205,269.053C936.392,269.053 928.144,265.973 922.464,259.814C916.783,253.654 913.942,244.962 913.942,233.737L913.942,156.534C913.942,145.31 916.783,136.618 922.464,130.458C928.144,124.298 936.392,121.218 947.205,121.218C958.019,121.218 966.267,124.298 971.947,130.458C977.628,136.618 980.468,145.31 980.468,156.534L980.468,171.729L959.114,171.729L959.114,155.097C959.114,146.2 955.35,141.751 947.821,141.751C940.293,141.751 936.528,146.2 936.528,155.097L936.528,235.38C936.528,244.14 940.293,248.521 947.821,248.521C955.35,248.521 959.114,244.14 959.114,235.38L959.114,213.41L980.468,213.41L980.468,233.737C980.468,244.962 977.628,253.654 971.947,259.814C966.267,265.973 958.019,269.053 947.205,269.053Z" style="fill:rgb(15,82,32);fill-rule:nonzero;"/>
                <path d="M1047.61,269.053C1036.522,269.053 1028.036,265.905 1022.15,259.608C1016.264,253.312 1013.32,244.414 1013.32,232.916L1013.32,157.356C1013.32,145.857 1016.264,136.96 1022.15,130.663C1028.036,124.367 1036.522,121.218 1047.61,121.218C1058.698,121.218 1067.184,124.367 1073.07,130.663C1078.957,136.96 1081.9,145.857 1081.9,157.356L1081.9,232.916C1081.9,244.414 1078.957,253.312 1073.07,259.608C1067.184,265.905 1058.698,269.053 1047.61,269.053ZM1047.61,248.521C1055.412,248.521 1059.314,243.798 1059.314,234.353L1059.314,155.918C1059.314,146.473 1055.412,141.751 1047.61,141.751C1039.808,141.751 1035.906,146.473 1035.906,155.918L1035.906,234.353C1035.906,243.798 1039.808,248.521 1047.61,248.521Z" style="fill:rgb(15,82,32);fill-rule:nonzero;"/>
                <path d="M1117.626,123.271L1140.212,123.271L1140.212,246.467L1177.376,246.467L1177.376,267L1117.626,267L1117.626,123.271Z" style="fill:rgb(15,82,32);fill-rule:nonzero;"/>
                <path d="M1208.791,123.271L1270.389,123.271L1270.389,143.804L1231.377,143.804L1231.377,181.79L1262.382,181.79L1262.382,202.322L1231.377,202.322L1231.377,246.467L1270.389,246.467L1270.389,267L1208.791,267L1208.791,123.271Z" style="fill:rgb(15,82,32);fill-rule:nonzero;"/>
                <path d="M1335.683,269.053C1324.869,269.053 1316.622,265.973 1310.941,259.814C1305.261,253.654 1302.42,244.962 1302.42,233.737L1302.42,156.534C1302.42,145.31 1305.261,136.618 1310.941,130.458C1316.622,124.298 1324.869,121.218 1335.683,121.218C1346.497,121.218 1354.744,124.298 1360.425,130.458C1366.106,136.618 1368.946,145.31 1368.946,156.534L1368.946,171.729L1347.592,171.729L1347.592,155.097C1347.592,146.2 1343.828,141.751 1336.299,141.751C1328.77,141.751 1325.006,146.2 1325.006,155.097L1325.006,235.38C1325.006,244.14 1328.77,248.521 1336.299,248.521C1343.828,248.521 1347.592,244.14 1347.592,235.38L1347.592,213.41L1368.946,213.41L1368.946,233.737C1368.946,244.962 1366.106,253.654 1360.425,259.814C1354.744,265.973 1346.497,269.053 1335.683,269.053Z" style="fill:rgb(15,82,32);fill-rule:nonzero;"/>
                <path d="M1420.688,143.804L1397.076,143.804L1397.076,123.271L1466.887,123.271L1466.887,143.804L1443.274,143.804L1443.274,267L1420.688,267L1420.688,143.804Z" style="fill:rgb(15,82,32);fill-rule:nonzero;"/>
                <path d="M1530.127,269.053C1519.04,269.053 1510.553,265.905 1504.667,259.608C1498.781,253.312 1495.838,244.414 1495.838,232.916L1495.838,157.356C1495.838,145.857 1498.781,136.96 1504.667,130.663C1510.553,124.367 1519.04,121.218 1530.127,121.218C1541.215,121.218 1549.702,124.367 1555.588,130.663C1561.474,136.96 1564.417,145.857 1564.417,157.356L1564.417,232.916C1564.417,244.414 1561.474,253.312 1555.588,259.608C1549.702,265.905 1541.215,269.053 1530.127,269.053ZM1530.127,248.521C1537.93,248.521 1541.831,243.798 1541.831,234.353L1541.831,155.918C1541.831,146.473 1537.93,141.751 1530.127,141.751C1522.325,141.751 1518.424,146.473 1518.424,155.918L1518.424,234.353C1518.424,243.798 1522.325,248.521 1530.127,248.521Z" style="fill:rgb(15,82,32);fill-rule:nonzero;"/>
                <path d="M1600.144,123.271L1633.612,123.271C1645.247,123.271 1653.734,125.975 1659.072,131.382C1664.411,136.789 1667.08,145.105 1667.08,156.329L1667.08,165.158C1667.08,180.078 1662.152,189.523 1652.296,193.493L1652.296,193.904C1657.772,195.546 1661.639,198.9 1663.897,203.965C1666.156,209.029 1667.285,215.805 1667.285,224.292L1667.285,249.547C1667.285,253.654 1667.422,256.973 1667.696,259.506C1667.97,262.038 1668.654,264.536 1669.749,267L1646.753,267C1645.931,264.673 1645.384,262.483 1645.11,260.43C1644.836,258.376 1644.699,254.68 1644.699,249.342L1644.699,223.06C1644.699,216.49 1643.639,211.904 1641.517,209.303C1639.395,206.702 1635.733,205.402 1630.532,205.402L1622.729,205.402L1622.729,267L1600.144,267L1600.144,123.271ZM1630.943,184.869C1635.46,184.869 1638.848,183.706 1641.106,181.379C1643.365,179.052 1644.494,175.151 1644.494,169.675L1644.494,158.588C1644.494,153.386 1643.57,149.622 1641.722,147.295C1639.874,144.968 1636.965,143.804 1632.996,143.804L1622.729,143.804L1622.729,184.869L1630.943,184.869Z" style="fill:rgb(15,82,32);fill-rule:nonzero;"/>
                <rect x="1704.449" y="245.235" width="21.765" height="21.765" style="fill:rgb(15,82,32);fill-rule:nonzero;"/>
                <path d="M1763.583,123.271L1825.181,123.271L1825.181,143.804L1786.169,143.804L1786.169,181.79L1817.174,181.79L1817.174,202.322L1786.169,202.322L1786.169,246.467L1825.181,246.467L1825.181,267L1763.583,267L1763.583,123.271Z" style="fill:rgb(15,82,32);fill-rule:nonzero;"/>
                <path d="M1888.422,269.053C1877.471,269.053 1869.19,265.939 1863.577,259.711C1857.965,253.483 1855.159,244.551 1855.159,232.916L1855.159,224.703L1876.513,224.703L1876.513,234.558C1876.513,243.867 1880.414,248.521 1888.217,248.521C1892.049,248.521 1894.958,247.391 1896.943,245.133C1898.928,242.874 1899.92,239.212 1899.92,234.148C1899.92,228.125 1898.551,222.821 1895.814,218.235C1893.076,213.649 1888.011,208.14 1880.62,201.706C1871.311,193.493 1864.809,186.067 1861.114,179.428C1857.418,172.789 1855.57,165.295 1855.57,156.945C1855.57,145.584 1858.444,136.789 1864.193,130.561C1869.943,124.332 1878.293,121.218 1889.243,121.218C1900.057,121.218 1908.236,124.332 1913.78,130.561C1919.324,136.789 1922.095,145.72 1922.095,157.356L1922.095,163.31L1900.742,163.31L1900.742,155.918C1900.742,150.991 1899.783,147.397 1897.867,145.139C1895.951,142.88 1893.144,141.751 1889.449,141.751C1881.92,141.751 1878.156,146.336 1878.156,155.508C1878.156,160.709 1879.559,165.569 1882.365,170.086C1885.171,174.603 1890.27,180.078 1897.662,186.512C1907.107,194.725 1913.609,202.185 1917.168,208.893C1920.727,215.6 1922.506,223.471 1922.506,232.505C1922.506,244.277 1919.597,253.312 1913.78,259.608C1907.962,265.905 1899.51,269.053 1888.422,269.053Z" style="fill:rgb(15,82,32);fill-rule:nonzero;"/>
            </g>
            <g transform="matrix(0.97691,0,0,1.367373,-260.400747,-3969.628499)">
                <g transform="matrix(1.238,0,0,1.448,14.952458,2194.20695)">
                    <path d="M483.616,384.597L595,384.597" style="fill:none;stroke:rgb(72,142,27);stroke-width:4.62px;"/>
                </g>
                <g transform="matrix(1.238,0,0,1.448,971.795411,2194.20695)">
                    <path d="M483.616,384.597L595,384.597" style="fill:none;stroke:rgb(72,142,27);stroke-width:4.62px;"/>
                </g>
                <g transform="matrix(1.364079,0,0,1.595466,-20.493893,2020.325006)">
                    <path d="M599.227,468.034L607.217,440.093L616.169,440.093L603.863,476L598.019,476L599.227,468.034ZM591.952,440.093L599.918,468.034L601.175,476L595.257,476L583.025,440.093L591.952,440.093Z" style="fill:rgb(72,142,27);fill-rule:nonzero;"/>
                    <path d="M640.305,446.924L631.032,476L622.45,476L635.742,440.093L641.168,440.093L640.305,446.924ZM647.999,476L638.702,446.924L637.74,440.093L643.239,440.093L656.581,476L647.999,476ZM647.604,462.634C649.571,463.286 647.604,468.848 647.604,468.848L628.887,468.848L628.887,462.634C628.887,462.634 644.485,461.598 647.604,462.634Z" style="fill:rgb(72,142,27);fill-rule:nonzero;"/>
                    <path d="M687.794,463.965L695.785,463.965C695.653,466.431 694.983,468.606 693.775,470.488C692.566,472.371 690.893,473.842 688.756,474.903C686.619,475.963 684.079,476.493 681.136,476.493C678.785,476.493 676.68,476.09 674.823,475.285C672.965,474.479 671.391,473.324 670.1,471.82C668.809,470.316 667.823,468.499 667.141,466.37C666.458,464.241 666.117,461.836 666.117,459.156L666.117,456.962C666.117,454.282 666.471,451.873 667.178,449.736C667.885,447.599 668.896,445.774 670.211,444.261C671.526,442.748 673.105,441.589 674.946,440.784C676.787,439.978 678.842,439.575 681.111,439.575C684.169,439.575 686.75,440.126 688.855,441.228C690.959,442.329 692.591,443.842 693.75,445.765C694.909,447.689 695.604,449.884 695.834,452.35L687.819,452.35C687.753,450.952 687.49,449.773 687.03,448.811C686.57,447.849 685.863,447.122 684.909,446.628C683.955,446.135 682.69,445.889 681.111,445.889C679.96,445.889 678.953,446.102 678.09,446.53C677.227,446.957 676.512,447.623 675.945,448.527C675.377,449.432 674.954,450.578 674.675,451.968C674.395,453.357 674.255,455.005 674.255,456.912L674.255,459.156C674.255,461.047 674.379,462.683 674.625,464.064C674.872,465.445 675.271,466.588 675.821,467.492C676.372,468.396 677.083,469.07 677.955,469.514C678.826,469.958 679.886,470.18 681.136,470.18C682.566,470.18 683.758,469.954 684.712,469.502C685.665,469.05 686.397,468.363 686.907,467.443C687.416,466.522 687.712,465.363 687.794,463.965Z" style="fill:rgb(72,142,27);fill-rule:nonzero;"/>
                    <rect x="708.872" y="440.093" width="8.015" height="35.907" style="fill:rgb(72,142,27);fill-rule:nonzero;"/>
                    <path d="M746.793,446.924L737.52,476L728.938,476L742.231,440.093L747.656,440.093L746.793,446.924ZM754.487,476L745.19,446.924L744.228,440.093L749.728,440.093L763.069,476L754.487,476ZM754.093,462.634L754.093,468.848L735.375,468.848L735.375,462.634L754.093,462.634Z" style="fill:rgb(72,142,27);fill-rule:nonzero;"/>
                    <path d="M785.478,476L777.587,476L777.636,469.785L785.478,469.785C787.27,469.785 788.783,469.37 790.016,468.54C791.249,467.71 792.186,466.477 792.827,464.841C793.469,463.205 793.789,461.211 793.789,458.86L793.789,457.208C793.789,455.433 793.608,453.867 793.247,452.51C792.885,451.154 792.351,450.015 791.644,449.095C790.937,448.174 790.061,447.483 789.017,447.023C787.973,446.563 786.777,446.333 785.429,446.333L777.439,446.333L777.439,440.093L785.429,440.093C787.862,440.093 790.086,440.504 792.1,441.326C794.114,442.148 795.857,443.324 797.328,444.853C798.8,446.382 799.938,448.19 800.744,450.278C801.549,452.366 801.952,454.693 801.952,457.257L801.952,458.86C801.952,461.409 801.549,463.731 800.744,465.827C799.938,467.923 798.8,469.732 797.328,471.253C795.857,472.773 794.118,473.945 792.112,474.767C790.107,475.589 787.895,476 785.478,476ZM782.149,440.093L782.149,476L774.11,476L774.11,440.093L782.149,440.093Z" style="fill:rgb(72,142,27);fill-rule:nonzero;"/>
                    <path d="M844.879,457.257L844.879,458.86C844.879,461.59 844.505,464.039 843.757,466.209C843.009,468.38 841.949,470.229 840.576,471.758C839.203,473.287 837.576,474.459 835.693,475.272C833.811,476.086 831.727,476.493 829.441,476.493C827.156,476.493 825.068,476.086 823.178,475.272C821.287,474.459 819.647,473.287 818.258,471.758C816.868,470.229 815.796,468.38 815.039,466.209C814.283,464.039 813.905,461.59 813.905,458.86L813.905,457.257C813.905,454.528 814.283,452.075 815.039,449.896C815.796,447.718 816.86,445.864 818.233,444.335C819.606,442.806 821.238,441.635 823.128,440.821C825.019,440.007 827.107,439.6 829.392,439.6C831.677,439.6 833.765,440.007 835.656,440.821C837.547,441.635 839.179,442.806 840.551,444.335C841.924,445.864 842.989,447.718 843.745,449.896C844.501,452.075 844.879,454.528 844.879,457.257ZM836.766,458.86L836.766,457.208C836.766,455.383 836.601,453.768 836.273,452.362C835.944,450.957 835.467,449.777 834.842,448.823C834.218,447.87 833.445,447.15 832.524,446.665C831.603,446.18 830.559,445.938 829.392,445.938C828.176,445.938 827.115,446.18 826.211,446.665C825.307,447.15 824.546,447.87 823.93,448.823C823.313,449.777 822.845,450.957 822.524,452.362C822.203,453.768 822.043,455.383 822.043,457.208L822.043,458.86C822.043,460.669 822.203,462.276 822.524,463.682C822.845,465.087 823.317,466.275 823.942,467.245C824.567,468.215 825.335,468.947 826.248,469.44C827.16,469.933 828.225,470.18 829.441,470.18C830.609,470.18 831.649,469.933 832.561,469.44C833.474,468.947 834.242,468.215 834.867,467.245C835.492,466.275 835.964,465.087 836.285,463.682C836.606,462.276 836.766,460.669 836.766,458.86Z" style="fill:rgb(72,142,27);fill-rule:nonzero;"/>
                    <path d="M889.895,476L882.003,476L882.053,469.785L889.895,469.785C891.687,469.785 893.2,469.37 894.433,468.54C895.666,467.71 896.603,466.477 897.244,464.841C897.885,463.205 898.206,461.211 898.206,458.86L898.206,457.208C898.206,455.433 898.025,453.867 897.663,452.51C897.302,451.154 896.767,450.015 896.06,449.095C895.353,448.174 894.478,447.483 893.434,447.023C892.39,446.563 891.194,446.333 889.846,446.333L881.855,446.333L881.855,440.093L889.846,440.093C892.279,440.093 894.503,440.504 896.517,441.326C898.531,442.148 900.273,443.324 901.745,444.853C903.216,446.382 904.355,448.19 905.16,450.278C905.966,452.366 906.369,454.693 906.369,457.257L906.369,458.86C906.369,461.409 905.966,463.731 905.16,465.827C904.355,467.923 903.216,469.732 901.745,471.253C900.273,472.773 898.535,473.945 896.529,474.767C894.523,475.589 892.312,476 889.895,476ZM886.566,440.093L886.566,476L878.526,476L878.526,440.093L886.566,440.093Z" style="fill:rgb(72,142,27);fill-rule:nonzero;"/>
                    <path d="M943.772,469.785L943.772,476L924.659,476L924.659,469.785L943.772,469.785ZM927.397,440.093L927.397,476L919.357,476L919.357,440.093L927.397,440.093ZM941.306,454.545L941.306,460.562L924.659,460.562L924.659,454.545L941.306,454.545ZM943.797,440.093L943.797,446.333L924.659,446.333L924.659,440.093L943.797,440.093Z" style="fill:rgb(72,142,27);fill-rule:nonzero;"/>
                    <path d="M990.588,463.521L981.562,463.521L981.562,457.282L990.588,457.282C991.919,457.282 992.992,457.06 993.806,456.616C994.62,456.172 995.22,455.56 995.606,454.779C995.993,453.998 996.186,453.114 996.186,452.128C996.186,451.109 995.993,450.159 995.606,449.28C995.22,448.4 994.62,447.689 993.806,447.146C992.992,446.604 991.919,446.333 990.588,446.333L984.472,446.333L984.472,476L976.432,476L976.432,440.093L990.588,440.093C993.448,440.093 995.902,440.611 997.949,441.647C999.996,442.683 1001.566,444.101 1002.659,445.901C1003.753,447.701 1004.299,449.76 1004.299,452.079C1004.299,454.397 1003.753,456.411 1002.659,458.121C1001.566,459.83 999.996,461.158 997.949,462.103C995.902,463.049 993.448,463.521 990.588,463.521Z" style="fill:rgb(72,142,27);fill-rule:nonzero;"/>
                    <rect x="1017.781" y="440.093" width="8.015" height="35.907" style="fill:rgb(72,142,27);fill-rule:nonzero;"/>
                    <path d="M1058.957,466.53C1058.957,465.922 1058.867,465.375 1058.686,464.89C1058.505,464.405 1058.177,463.957 1057.7,463.546C1057.223,463.135 1056.549,462.72 1055.678,462.301C1054.806,461.881 1053.664,461.45 1052.25,461.006C1050.638,460.48 1049.105,459.884 1047.65,459.218C1046.195,458.552 1044.901,457.775 1043.766,456.888C1042.632,456 1041.74,454.964 1041.09,453.78C1040.441,452.597 1040.116,451.215 1040.116,449.637C1040.116,448.108 1040.453,446.727 1041.127,445.494C1041.802,444.261 1042.747,443.205 1043.963,442.325C1045.18,441.446 1046.61,440.771 1048.255,440.303C1049.899,439.834 1051.707,439.6 1053.68,439.6C1056.311,439.6 1058.625,440.065 1060.622,440.993C1062.62,441.922 1064.177,443.221 1065.295,444.89C1066.413,446.559 1066.972,448.495 1066.972,450.698L1058.982,450.698C1058.982,449.728 1058.781,448.869 1058.378,448.12C1057.975,447.372 1057.367,446.785 1056.553,446.357C1055.739,445.93 1054.724,445.716 1053.507,445.716C1052.324,445.716 1051.333,445.893 1050.536,446.246C1049.738,446.6 1049.138,447.081 1048.735,447.689C1048.333,448.297 1048.131,448.963 1048.131,449.686C1048.131,450.262 1048.283,450.784 1048.587,451.252C1048.892,451.721 1049.336,452.157 1049.919,452.56C1050.503,452.962 1051.222,453.345 1052.077,453.706C1052.932,454.068 1053.91,454.413 1055.012,454.742C1056.935,455.35 1058.641,456.024 1060.129,456.764C1061.617,457.504 1062.87,458.343 1063.89,459.28C1064.909,460.217 1065.678,461.277 1066.196,462.461C1066.713,463.645 1066.972,464.985 1066.972,466.481C1066.972,468.076 1066.664,469.489 1066.048,470.723C1065.431,471.956 1064.543,473.004 1063.384,473.867C1062.225,474.73 1060.84,475.383 1059.229,475.827C1057.618,476.271 1055.817,476.493 1053.828,476.493C1052.019,476.493 1050.236,476.259 1048.476,475.79C1046.717,475.322 1045.127,474.603 1043.705,473.633C1042.282,472.663 1041.148,471.425 1040.301,469.921C1039.455,468.417 1039.031,466.629 1039.031,464.557L1047.071,464.557C1047.071,465.642 1047.227,466.559 1047.539,467.307C1047.852,468.055 1048.3,468.659 1048.883,469.12C1049.467,469.58 1050.178,469.909 1051.017,470.106C1051.855,470.303 1052.792,470.402 1053.828,470.402C1055.028,470.402 1056.002,470.233 1056.75,469.896C1057.498,469.559 1058.053,469.095 1058.415,468.503C1058.777,467.911 1058.957,467.253 1058.957,466.53Z" style="fill:rgb(72,142,27);fill-rule:nonzero;"/>
                    <path d="M1109.702,457.257L1109.702,458.86C1109.702,461.59 1109.328,464.039 1108.58,466.209C1107.832,468.38 1106.772,470.229 1105.399,471.758C1104.026,473.287 1102.399,474.459 1100.516,475.272C1098.634,476.086 1096.55,476.493 1094.264,476.493C1091.979,476.493 1089.891,476.086 1088.001,475.272C1086.11,474.459 1084.47,473.287 1083.081,471.758C1081.691,470.229 1080.619,468.38 1079.862,466.209C1079.106,464.039 1078.728,461.59 1078.728,458.86L1078.728,457.257C1078.728,454.528 1079.106,452.075 1079.862,449.896C1080.619,447.718 1081.683,445.864 1083.056,444.335C1084.429,442.806 1086.06,441.635 1087.951,440.821C1089.842,440.007 1091.93,439.6 1094.215,439.6C1096.5,439.6 1098.588,440.007 1100.479,440.821C1102.37,441.635 1104.002,442.806 1105.374,444.335C1106.747,445.864 1107.812,447.718 1108.568,449.896C1109.324,452.075 1109.702,454.528 1109.702,457.257ZM1101.589,458.86L1101.589,457.208C1101.589,455.383 1101.424,453.768 1101.096,452.362C1100.767,450.957 1100.29,449.777 1099.665,448.823C1099.041,447.87 1098.268,447.15 1097.347,446.665C1096.426,446.18 1095.382,445.938 1094.215,445.938C1092.999,445.938 1091.938,446.18 1091.034,446.665C1090.13,447.15 1089.369,447.87 1088.753,448.823C1088.136,449.777 1087.668,450.957 1087.347,452.362C1087.026,453.768 1086.866,455.383 1086.866,457.208L1086.866,458.86C1086.866,460.669 1087.026,462.276 1087.347,463.682C1087.668,465.087 1088.14,466.275 1088.765,467.245C1089.39,468.215 1090.158,468.947 1091.071,469.44C1091.983,469.933 1093.048,470.18 1094.264,470.18C1095.432,470.18 1096.472,469.933 1097.384,469.44C1098.297,468.947 1099.065,468.215 1099.69,467.245C1100.315,466.275 1100.787,465.087 1101.108,463.682C1101.429,462.276 1101.589,460.669 1101.589,458.86Z" style="fill:rgb(72,142,27);fill-rule:nonzero;"/>
                    <path d="M1141.31,466.53C1141.31,465.922 1141.22,465.375 1141.039,464.89C1140.858,464.405 1140.529,463.957 1140.052,463.546C1139.576,463.135 1138.902,462.72 1138.03,462.301C1137.159,461.881 1136.016,461.45 1134.602,461.006C1132.991,460.48 1131.458,459.884 1130.003,459.218C1128.548,458.552 1127.253,457.775 1126.119,456.888C1124.984,456 1124.093,454.964 1123.443,453.78C1122.794,452.597 1122.469,451.215 1122.469,449.637C1122.469,448.108 1122.806,446.727 1123.48,445.494C1124.154,444.261 1125.1,443.205 1126.316,442.325C1127.533,441.446 1128.963,440.771 1130.607,440.303C1132.251,439.834 1134.06,439.6 1136.033,439.6C1138.663,439.6 1140.977,440.065 1142.975,440.993C1144.972,441.922 1146.53,443.221 1147.648,444.89C1148.766,446.559 1149.325,448.495 1149.325,450.698L1141.335,450.698C1141.335,449.728 1141.133,448.869 1140.731,448.12C1140.328,447.372 1139.72,446.785 1138.906,446.357C1138.092,445.93 1137.077,445.716 1135.86,445.716C1134.676,445.716 1133.686,445.893 1132.888,446.246C1132.091,446.6 1131.491,447.081 1131.088,447.689C1130.685,448.297 1130.484,448.963 1130.484,449.686C1130.484,450.262 1130.636,450.784 1130.94,451.252C1131.244,451.721 1131.688,452.157 1132.272,452.56C1132.855,452.962 1133.575,453.345 1134.43,453.706C1135.285,454.068 1136.263,454.413 1137.364,454.742C1139.288,455.35 1140.994,456.024 1142.482,456.764C1143.969,457.504 1145.223,458.343 1146.242,459.28C1147.262,460.217 1148.03,461.277 1148.548,462.461C1149.066,463.645 1149.325,464.985 1149.325,466.481C1149.325,468.076 1149.017,469.489 1148.4,470.723C1147.784,471.956 1146.896,473.004 1145.737,473.867C1144.578,474.73 1143.193,475.383 1141.581,475.827C1139.97,476.271 1138.17,476.493 1136.181,476.493C1134.372,476.493 1132.588,476.259 1130.829,475.79C1129.07,475.322 1127.479,474.603 1126.057,473.633C1124.635,472.663 1123.501,471.425 1122.654,469.921C1121.807,468.417 1121.384,466.629 1121.384,464.557L1129.423,464.557C1129.423,465.642 1129.58,466.559 1129.892,467.307C1130.204,468.055 1130.652,468.659 1131.236,469.12C1131.82,469.58 1132.531,469.909 1133.369,470.106C1134.208,470.303 1135.145,470.402 1136.181,470.402C1137.381,470.402 1138.355,470.233 1139.103,469.896C1139.851,469.559 1140.406,469.095 1140.768,468.503C1141.129,467.911 1141.31,467.253 1141.31,466.53Z" style="fill:rgb(72,142,27);fill-rule:nonzero;"/>
                </g>
            </g>
            <g transform="matrix(1.56621,0,0,1.748294,200.689806,-1402.350178)">
                <path d="M341.922,740.549C342.627,738.571 342.245,738.408 343.911,736.983C347.024,734.32 415.67,727.245 515.551,732.124C518.359,732.261 518.357,734.749 515.541,734.883C478.762,736.628 478.801,735.773 441.478,738.042C348.153,743.717 343.155,749.365 341.922,740.549Z" style="fill:rgb(70,142,25);"/>
            </g>
        </g>
    </g>
</svg>
